<svg xmlns="http://www.w3.org/2000/svg" viewBox="0 0 100 100">
  <rect width="100" height="100" rx="22" fill="#D97757"/>
  <polygon points="37.80,50.00 43.90,39.43 56.10,39.43 62.20,50.00 56.10,60.57 43.90,60.57" fill="#FFF3ED" opacity="0.95"/>
  <polygon points="37.80,26.44 43.90,15.88 56.10,15.88 62.20,26.44 56.10,37.01 43.90,37.01" fill="#FFF3ED" opacity="0.95"/>
  <polygon points="37.80,73.56 43.90,62.99 56.10,62.99 62.20,73.56 56.10,84.12 43.90,84.12" fill="#FFF3ED" opacity="0.95"/>
  <polygon points="17.40,38.22 23.50,27.66 35.70,27.66 41.80,38.22 35.70,48.79 23.50,48.79" fill="#FFF3ED" opacity="0.95"/>
  <polygon points="17.40,61.78 23.50,51.21 35.70,51.21 41.80,61.78 35.70,72.34 23.50,72.34" fill="#FFF3ED" opacity="0.95"/>
  <polygon points="58.20,38.22 64.30,27.66 76.50,27.66 82.60,38.22 76.50,48.79 64.30,48.79" fill="#FFF3ED" opacity="0.95"/>
  <polygon points="58.20,61.78 64.30,51.21 76.50,51.21 82.60,61.78 76.50,72.34 64.30,72.34" fill="#FFF3ED" opacity="0.95"/>
</svg>
